<svg width="113" height="23" viewBox="0 0 113 23" fill="none" xmlns="http://www.w3.org/2000/svg">
<g clip-path="url(#clip0_2_111)">
<path d="M0 17.9601V1.11011H1.79V17.9601H0ZM1.15 17.9601V16.3701H6.49C7.6 16.3701 8.47 16.0601 9.11 15.4401C9.75 14.8201 10.07 14.0401 10.07 13.1101C10.07 12.5101 9.93 11.9601 9.65 11.4701C9.37 10.9801 8.98 10.5901 8.46 10.3101C7.95 10.0201 7.34 9.88011 6.64 9.88011H1.15V8.31011H6.36C7.27 8.31011 8 8.06011 8.53 7.58011C9.06 7.09011 9.33 6.40011 9.33 5.50011C9.33 4.60011 9.04 3.91011 8.47 3.42011C7.9 2.93011 7.13 2.69011 6.17 2.69011H1.15V1.12011H6.22C7.26 1.12011 8.15 1.31011 8.89 1.68011C9.63 2.05011 10.18 2.56011 10.56 3.20011C10.94 3.84011 11.12 4.55011 11.12 5.35011C11.12 6.30011 10.87 7.11011 10.39 7.79011C9.9 8.47011 9.18 8.99011 8.23 9.35011L8.4 8.76011C9.49 9.10011 10.35 9.67011 10.96 10.4501C11.57 11.2301 11.88 12.1601 11.88 13.2401C11.88 14.1401 11.66 14.9401 11.23 15.6501C10.8 16.3601 10.17 16.9201 9.34 17.3401C8.52 17.7601 7.52 17.9601 6.37 17.9601H1.15Z" fill="white"/>
<path d="M18.73 18.0002L13.69 6.44019H15.57L19.63 16.0902H18.92L23.2 6.44019H25.11L19.7 18.0002H18.72H18.73ZM15.6 22.8002L18.76 16.2602L19.72 18.0002L17.49 22.8002H15.6Z" fill="white"/>
<path d="M45.45 20.26C44.64 20.26 43.88 19.94 43.31 19.37L36.24 12.28C35.67 11.7 35.35 10.93 35.35 10.12C35.35 9.31 35.67 8.54 36.24 7.97L43.33 0.89C43.91 0.32 44.67 0 45.47 0C46.28 0 47.04 0.32 47.61 0.9L52.39 5.73C52.96 6.31 53.27 7.07 53.27 7.89C53.27 8.71 52.95 9.47 52.37 10.04L47.87 14.52L45.62 12.24L50.01 7.88L45.46 3.29L38.6 10.15L45.44 17.01L47.88 14.55L50.15 16.81L47.6 19.39C47.03 19.97 46.26 20.29 45.45 20.29V20.26Z" fill="white"/>
<path d="M56.5 18.1499V2.12988H64.05C67.02 2.12988 68.9 4.21988 68.9 7.24988C68.9 10.2799 67.03 12.3699 64.05 12.3699H59.98V18.1599H56.5V18.1499ZM59.98 9.33988H63.64C64.67 9.33988 65.31 8.78988 65.31 7.74988V6.73988C65.31 5.69988 64.67 5.14988 63.64 5.14988H59.98V9.32988V9.33988Z" fill="white"/>
<path d="M73.82 18.1499C71.51 18.1499 70.46 16.9799 70.46 14.8499V2.12988H73.85V15.5099H75.36V18.1499H73.83H73.82Z" fill="white"/>
<path d="M86.76 18.1499C85.55 18.1499 84.68 17.3199 84.47 16.0399H84.33C83.97 17.5999 82.64 18.4299 80.81 18.4299C78.41 18.4299 77.08 17.0099 77.08 14.9199C77.08 12.3799 79.04 11.1499 82.22 11.1499H84.11V9.72991C84.11 8.55991 83.54 7.82991 82.12 7.82991C80.7 7.82991 80.06 8.51991 79.54 9.24991L77.53 7.45991C78.49 6.03991 79.87 5.15991 82.38 5.15991C85.77 5.15991 87.5 6.71991 87.5 9.56991V15.4999H88.62V18.1399H86.75L86.76 18.1499ZM84.13 14.4999V13.0799H82.48C81.17 13.0799 80.49 13.5599 80.49 14.4299V14.7799C80.49 15.6499 81.06 16.0599 82.07 16.0599C83.18 16.0599 84.13 15.5999 84.13 14.4999Z" fill="white"/>
<path d="M94.35 18.1501C92.01 18.1501 90.78 16.9401 90.78 14.6401V7.97007H89.09V5.33007H89.93C90.84 5.33007 91.12 4.87007 91.12 4.05007V2.07007H94.16V5.33007H96.54V7.98007H94.16V15.5201H96.36V18.1601H94.35V18.1501Z" fill="white"/>
<path d="M98.01 18.1501V15.4701L103.98 7.98008H98.22V5.33008H107.92V7.99008L101.93 15.5101H108.08V18.1501H98.02H98.01Z" fill="white"/>
<path d="M112.46 5.33008H109.68V18.1501H112.46V5.33008Z" fill="white"/>
<path d="M111.07 3.71998C111.965 3.71998 112.69 2.99468 112.69 2.09998C112.69 1.20528 111.965 0.47998 111.07 0.47998C110.175 0.47998 109.45 1.20528 109.45 2.09998C109.45 2.99468 110.175 3.71998 111.07 3.71998Z" fill="white"/>
</g>
<defs>
<clipPath id="clip0_2_111">
<rect width="112.69" height="22.8" fill="white"/>
</clipPath>
</defs>
</svg>
