<svg width="113" height="23" viewBox="0 0 113 23" fill="none" xmlns="http://www.w3.org/2000/svg">
<g clip-path="url(#clip0_2_70)">
<path d="M0 17.9601V1.11011H1.79V17.9601H0ZM1.15 17.9601V16.3701H6.49C7.6 16.3701 8.47 16.0601 9.11 15.4401C9.75 14.8201 10.07 14.0401 10.07 13.1101C10.07 12.5101 9.93 11.9601 9.65 11.4701C9.37 10.9801 8.98 10.5901 8.46 10.3101C7.95 10.0201 7.34 9.88011 6.64 9.88011H1.15V8.31011H6.36C7.27 8.31011 8 8.06011 8.53 7.58011C9.06 7.09011 9.33 6.40011 9.33 5.50011C9.33 4.60011 9.04 3.91011 8.47 3.42011C7.9 2.93011 7.13 2.69011 6.17 2.69011H1.15V1.12011H6.22C7.26 1.12011 8.15 1.31011 8.89 1.68011C9.63 2.05011 10.18 2.56011 10.56 3.20011C10.94 3.84011 11.12 4.55011 11.12 5.35011C11.12 6.30011 10.87 7.11011 10.39 7.79011C9.9 8.47011 9.18 8.99011 8.23 9.35011L8.4 8.76011C9.49 9.10011 10.35 9.67011 10.96 10.4501C11.57 11.2301 11.88 12.1601 11.88 13.2401C11.88 14.1401 11.66 14.9401 11.23 15.6501C10.8 16.3601 10.17 16.9201 9.34 17.3401C8.52 17.7601 7.52 17.9601 6.37 17.9601H1.15Z" fill="#989898"/>
<path d="M18.7299 18.0002L13.6899 6.44019H15.5699L19.6299 16.0902H18.9199L23.1999 6.44019H25.1099L19.6999 18.0002H18.7199H18.7299ZM15.5999 22.8002L18.7599 16.2602L19.7199 18.0002L17.4899 22.8002H15.5999Z" fill="#989898"/>
<path d="M45.4501 20.26C44.6401 20.26 43.8801 19.94 43.3101 19.37L36.2401 12.28C35.6701 11.7 35.3501 10.93 35.3501 10.12C35.3501 9.31 35.6701 8.54 36.2401 7.97L43.3301 0.89C43.9101 0.32 44.6701 0 45.4701 0C46.2801 0 47.0401 0.32 47.6101 0.9L52.3901 5.73C52.9601 6.31 53.2701 7.07 53.2701 7.89C53.2701 8.71 52.9501 9.47 52.3701 10.04L47.8701 14.52L45.6201 12.24L50.0101 7.88L45.4601 3.29L38.6001 10.15L45.4401 17.01L47.8801 14.55L50.1501 16.81L47.6001 19.39C47.0301 19.97 46.2601 20.29 45.4501 20.29V20.26Z" fill="#989898"/>
<path d="M56.5 18.1499V2.12988H64.05C67.02 2.12988 68.9 4.21988 68.9 7.24988C68.9 10.2799 67.03 12.3699 64.05 12.3699H59.98V18.1599H56.5V18.1499ZM59.98 9.33988H63.64C64.67 9.33988 65.31 8.78988 65.31 7.74988V6.73988C65.31 5.69988 64.67 5.14988 63.64 5.14988H59.98V9.32988V9.33988Z" fill="#989898"/>
<path d="M73.8202 18.1499C71.5102 18.1499 70.4602 16.9799 70.4602 14.8499V2.12988H73.8502V15.5099H75.3602V18.1499H73.8302H73.8202Z" fill="#989898"/>
<path d="M86.7601 18.1499C85.5501 18.1499 84.6801 17.3199 84.4701 16.0399H84.3301C83.9701 17.5999 82.6401 18.4299 80.8101 18.4299C78.4101 18.4299 77.0801 17.0099 77.0801 14.9199C77.0801 12.3799 79.0401 11.1499 82.2201 11.1499H84.1101V9.72991C84.1101 8.55991 83.5401 7.82991 82.1201 7.82991C80.7001 7.82991 80.0601 8.51991 79.5401 9.24991L77.5301 7.45991C78.4901 6.03991 79.8701 5.15991 82.3801 5.15991C85.7701 5.15991 87.5001 6.71991 87.5001 9.56991V15.4999H88.6201V18.1399H86.7501L86.7601 18.1499ZM84.1301 14.4999V13.0799H82.4801C81.1701 13.0799 80.4901 13.5599 80.4901 14.4299V14.7799C80.4901 15.6499 81.0601 16.0599 82.0701 16.0599C83.1801 16.0599 84.1301 15.5999 84.1301 14.4999Z" fill="#989898"/>
<path d="M94.3501 18.1501C92.0101 18.1501 90.7801 16.9401 90.7801 14.6401V7.97007H89.0901V5.33007H89.9301C90.8401 5.33007 91.1201 4.87007 91.1201 4.05007V2.07007H94.1601V5.33007H96.5401V7.98007H94.1601V15.5201H96.3601V18.1601H94.3501V18.1501Z" fill="#989898"/>
<path d="M98.01 18.1501V15.4701L103.98 7.98008H98.22V5.33008H107.92V7.99008L101.93 15.5101H108.08V18.1501H98.02H98.01Z" fill="#989898"/>
<path d="M112.46 5.33008H109.68V18.1501H112.46V5.33008Z" fill="#989898"/>
<path d="M111.07 3.71998C111.965 3.71998 112.69 2.99468 112.69 2.09998C112.69 1.20528 111.965 0.47998 111.07 0.47998C110.175 0.47998 109.45 1.20528 109.45 2.09998C109.45 2.99468 110.175 3.71998 111.07 3.71998Z" fill="#989898"/>
</g>
<defs>
<clipPath id="clip0_2_70">
<rect width="112.69" height="22.8" fill="white"/>
</clipPath>
</defs>
</svg>
