<svg width="26" height="27" viewBox="0 0 26 27" fill="none" xmlns="http://www.w3.org/2000/svg">
<g clip-path="url(#clip0_316_3469)">
<path d="M6.5 6.49996C6.5 5.90166 6.98503 5.41663 7.58333 5.41663H18.4167C19.015 5.41663 19.5 5.90166 19.5 6.49996C19.5 7.09826 19.015 7.58329 18.4167 7.58329H7.58333C6.98502 7.58329 6.5 7.09826 6.5 6.49996Z" fill="black"/>
<path d="M6.5 10.8333C6.5 10.235 6.98503 9.75 7.58333 9.75H18.4167C19.015 9.75 19.5 10.235 19.5 10.8333C19.5 11.4317 19.015 11.9167 18.4167 11.9167H7.58333C6.98502 11.9167 6.5 11.4317 6.5 10.8333Z" fill="black"/>
<path d="M7.58333 14.0834C6.98503 14.0834 6.5 14.5684 6.5 15.1667C6.5 15.765 6.98502 16.25 7.58333 16.25H18.4167C19.015 16.25 19.5 15.765 19.5 15.1667C19.5 14.5684 19.015 14.0834 18.4167 14.0834H7.58333Z" fill="black"/>
<path d="M6.5 19.5C6.5 18.9016 6.98503 18.4166 7.58333 18.4166H11.9167C12.515 18.4166 13 18.9016 13 19.5C13 20.0983 12.515 20.5833 11.9167 20.5833H7.58333C6.98503 20.5833 6.5 20.0983 6.5 19.5Z" fill="black"/>
<path fill-rule="evenodd" clip-rule="evenodd" d="M2.16675 4.33337C2.16675 2.53845 3.62183 1.08337 5.41675 1.08337H20.5834C22.3784 1.08337 23.8334 2.53845 23.8334 4.33337V21.6667C23.8334 23.4617 22.3784 24.9167 20.5834 24.9167H5.41675C3.62183 24.9167 2.16675 23.4617 2.16675 21.6667V4.33337ZM5.41675 3.25004H20.5834C21.1817 3.25004 21.6667 3.73506 21.6667 4.33337V21.6667C21.6667 22.265 21.1817 22.75 20.5834 22.75H5.41675C4.81844 22.75 4.33341 22.265 4.33341 21.6667V4.33337C4.33341 3.73507 4.81843 3.25004 5.41675 3.25004Z" fill="black"/>
</g>
<defs>
<clipPath id="clip0_316_3469">
<rect width="26" height="26" fill="white" transform="translate(0 0.359375)"/>
</clipPath>
</defs>
</svg>
