<svg width="49" height="68" viewBox="0 0 49 68" fill="none" xmlns="http://www.w3.org/2000/svg">
<g clip-path="url(#clip0_116_18)">
<path d="M31.4016 27.9207C29.8497 29.0546 28.533 30.5193 27.5748 32.2321L24.2419 38.1794L20.9089 32.2321C19.9508 30.5252 18.6399 29.0606 17.0822 27.9207L0.987554 55.9505C-1.06395 59.5236 0.188114 64.1007 3.79735 66.1029C7.33605 68.0695 11.8153 66.6403 13.8374 63.1203L19.6451 53.0152C21.6907 49.4539 26.8107 49.4539 28.8563 53.0152L34.7815 63.3329C36.1453 65.7012 38.6142 67.0242 41.1536 67.0242C42.3997 67.0242 43.6636 66.7053 44.8216 66.032C48.3368 63.9944 49.5418 59.4763 47.5138 55.9446L31.4074 27.9148L31.4016 27.9207Z" fill="white"/>
<path d="M24.2477 0.540649C26.5873 6.89548 31.5779 11.9097 37.9029 14.2602C31.5779 16.6108 26.5873 21.625 24.2477 27.9798C21.9082 21.625 16.9176 16.6108 10.5926 14.2602C16.9176 11.9097 21.9082 6.89548 24.2477 0.540649Z" fill="white"/>
</g>
<defs>
<clipPath id="clip0_116_18">
<rect width="48.4955" height="66.4836" fill="white" transform="translate(0 0.540649)"/>
</clipPath>
</defs>
</svg>
