<svg width="19" height="29" viewBox="0 0 19 29" fill="none" xmlns="http://www.w3.org/2000/svg">
<g clip-path="url(#clip0_2_177)">
<path d="M8.63412 0.0374632C12.1677 -0.320667 14.9094 1.90201 15.1052 5.4367C15.3016 8.98446 15.005 12.7642 15.0388 16.325C13.951 22.9652 4.30248 22.5547 3.90115 15.7105C3.70363 12.3361 4.05573 8.77413 3.90115 5.37985C3.93836 2.85248 6.05895 0.298386 8.63412 0.0374632ZM12.2261 18.2697C12.8135 17.6864 13.2629 16.7587 13.331 15.9339L13.3161 5.00069C12.6864 0.531455 5.99082 0.706541 5.67251 5.20931C5.42403 8.72581 5.85056 12.5425 5.69083 16.0891C6.12422 19.1656 9.98296 20.4963 12.2261 18.2691V18.2697Z" fill="black"/>
<path d="M10.3602 24.9275V27.2536H13.5886C13.6081 27.2536 13.9001 27.3366 13.9441 27.3543C14.7205 27.6669 14.6317 28.7521 13.8474 28.9852L5.20187 28.9994C4.38604 28.793 4.26466 27.676 5.06217 27.3543C5.10626 27.3366 5.39824 27.2536 5.4177 27.2536H8.64611V24.9275C4.81714 24.6478 1.46106 21.8607 0.40306 18.2191C0.212413 17.5625 -0.0990341 16.0163 0.0309264 15.3802C0.219283 14.4582 1.64828 14.4133 1.78224 15.6582C1.92022 16.9412 1.95457 17.7302 2.54025 18.9337C5.15091 24.2982 12.6903 24.728 15.9834 19.7596C16.9756 18.2629 17.0225 17.3067 17.2229 15.6008C17.3598 14.4332 18.787 14.4758 18.9748 15.3802C19.0533 15.7582 18.9233 16.6945 18.8569 17.1095C18.1933 21.2683 14.5962 24.6126 10.3596 24.9269L10.3602 24.9275Z" fill="black"/>
</g>
<defs>
<clipPath id="clip0_2_177">
<rect width="19" height="29" fill="white"/>
</clipPath>
</defs>
</svg>
