<svg width="139" height="169" viewBox="0 0 139 169" fill="none" xmlns="http://www.w3.org/2000/svg">
<g clip-path="url(#clip0_2_1538)">
<path d="M0 43.4C1.19 39.67 4.18 37.7 8.14 38.25C8.26 33.79 6.86 28.08 12.64 26.88L109.87 26.98C112.21 27.59 113.68 29.51 113.92 31.88L113.94 76.1C113.94 78.66 110.79 79.35 109.86 76.89L109.67 31.53L109.25 31.11L12.75 31.06C12.3 31.31 12.26 31.67 12.2 32.13C11.96 33.99 12.4 36.33 12.21 38.25C22.95 37.22 22.99 51.98 12.21 51.27V58.6C22.97 57.55 22.97 72.3 12.21 71.62V78.95C17.59 78.05 22.05 82.97 19.67 88.17C18.28 91.2 15.3 91.96 12.21 91.97V99.3C22.96 98.29 22.99 112.89 12.21 112.32V119.65C22.89 118.48 23.05 133.59 12.21 132.4V140C22.93 138.82 23.03 153.94 12.21 152.75L12.46 159.69L109.14 160.03L109.66 159.47L109.85 115.72C110.13 113.05 113.61 112.96 113.93 115.72L113.9 159.64C113.48 161.95 111.76 163.69 109.45 164.15L12.37 164.12C6.9 162.7 8.27 157.12 8.14 152.75C4.19 153.25 1.1 151.47 0 147.6V145.16C1.13 141.39 4.21 139.47 8.14 140.01V132.42C4.13 132.95 1.13 131.14 0 127.27V124.83C1.19 121.05 4.14 119.15 8.14 119.68V112.51C4.38 112.35 0.99 110.88 0 106.93V104.49C1.19 100.71 4.14 98.81 8.14 99.34V92.17C4.2 91.95 1.14 90.68 0 86.59V84.15C1.24 80.26 4.14 78.68 8.14 78.84V71.67C4.19 71.85 1.05 70.17 0 66.25V63.81C1.24 59.92 4.14 58.34 8.14 58.5V51.33C4.19 51.51 1.05 49.83 0 45.91V43.47L0 43.4ZM5.89 42.37C3.71 42.86 3.4 45.99 5.63 46.85C7.1 47.42 14.02 47.46 15.29 46.62C16.86 45.58 16.3 42.78 14.45 42.37C13.45 42.15 6.88 42.15 5.88 42.37H5.89ZM15.65 66.64C16.9 65.3 16.03 62.96 14.23 62.67C13.02 62.48 7 62.46 5.89 62.71C4.07 63.12 3.46 65.66 4.89 66.85C6.19 67.93 14.46 67.91 15.65 66.64ZM15.65 86.98C16.9 85.64 16.03 83.3 14.23 83.01C13.02 82.82 7 82.8 5.89 83.05C4.07 83.46 3.46 86 4.89 87.19C6.19 88.27 14.46 88.25 15.65 86.98ZM15.64 107.32C16.88 105.96 16.04 103.64 14.22 103.35C13 103.16 6.98 103.12 5.83 103.35C3.7 103.76 3.41 107.55 5.84 107.94C7.37 108.18 12.66 108.16 14.24 107.97C14.7 107.91 15.33 107.66 15.63 107.33L15.64 107.32ZM15.64 127.67C16.76 126.45 16.06 123.99 14.5 123.69C13.49 123.5 6.84 123.5 5.83 123.69C3.68 124.1 3.43 127.88 5.83 128.28C7.31 128.52 12.68 128.5 14.23 128.31C14.69 128.25 15.32 128 15.62 127.67H15.64ZM15.64 148.01C16.76 146.79 16.06 144.33 14.5 144.03C13.35 143.81 7.05 143.84 5.84 144.04C3.53 144.42 3.53 148.24 5.84 148.62C7.32 148.86 12.69 148.84 14.24 148.65C14.7 148.59 15.33 148.34 15.63 148.01H15.64Z" fill="black"/>
<path d="M129.29 68.73C135.74 68.72 141.87 77.46 137.25 83.13L75.1399 145.25C72.2999 147.67 61.3799 153.49 57.7699 154.73C54.7799 155.76 52.2199 153.93 52.6499 150.69C52.8599 149.09 58.3599 138.77 59.5399 136.69C60.2799 135.38 61.0899 134.1 61.9799 132.9L124.5 70.38C125.81 69.37 127.65 68.73 129.3 68.73H129.29ZM129.29 72.79C128.26 72.79 127.59 73.21 126.81 73.78C124.27 75.66 121.87 79.17 119.35 81.23L126.3 88.13L126.81 87.89C129.11 84.56 137.27 80.48 133.99 75.8C133.08 74.5 130.96 72.77 129.29 72.78V72.79ZM116.5 84.09L113.94 86.9L120.84 93.85L123.4 91.04L116.5 84.09ZM110.84 89.8L66.5799 134.54C67.3699 134.87 68.1699 136.26 69.0399 135.64L112.58 92.09C113.36 91.58 111.12 89.75 110.84 89.8ZM115.95 94.67L71.7199 138.88L73.2299 141.19L117.86 96.83L115.95 94.67ZM57.2299 150.26L69.9499 143.66C69.5199 142.41 64.5699 137.03 63.4899 137.8L57.2299 150.26Z" fill="black"/>
<path d="M99.46 88.35C99.35 88.49 98.71 88.86 98.53 88.9L31.59 88.98C28.96 88.65 29.29 85.07 31.87 84.89L98.67 85.1C99.9 85.58 100.26 87.36 99.47 88.34L99.46 88.35Z" fill="black"/>
<path d="M47.13 70.59L97.24 70.52C100.92 70.73 100.65 75.02 96.98 74.87H47.87C44.45 75.01 43.43 71.17 47.14 70.59H47.13Z" fill="black"/>
<path d="M31.1099 99.33L80.9599 99.27C83.8999 99.61 83.0599 103.66 80.1499 103.35H32.1299C29.6399 103.36 28.7799 100.32 31.0999 99.33H31.1099Z" fill="black"/>
<path d="M65.0301 46.45C66.1601 47.51 65.5301 49.79 63.8901 49.92H31.5901C28.6601 49.57 29.4801 45.52 32.4001 45.83C42.2401 46.47 53.0801 45.01 62.8001 45.83C63.3601 45.88 64.6401 46.1 65.0301 46.45Z" fill="black"/>
<path d="M49.0201 141.67C50.1401 142.62 49.7201 144.97 48.1401 145.09C42.9201 144.69 36.7001 145.71 31.6001 145.12C28.9701 144.82 28.9801 141.47 32.1801 141.08C35.6001 140.66 43.2901 140.74 46.8101 141.04C47.4301 141.09 48.5701 141.29 49.0301 141.68L49.0201 141.67Z" fill="black"/>
<path d="M38.71 71.14C39.53 71.8 39.53 73.57 38.71 74.24C37.63 75.11 31.9 75.11 30.67 74.43C29.31 73.68 29.44 71.4 31.06 70.8C32.35 70.33 37.65 70.29 38.71 71.14Z" fill="black"/>
<path d="M113.94 166.98C118.557 166.98 122.3 163.237 122.3 158.62C122.3 154.003 118.557 150.26 113.94 150.26C109.323 150.26 105.58 154.003 105.58 158.62C105.58 163.237 109.323 166.98 113.94 166.98Z" fill="#49EB8B" stroke="black" stroke-width="4" stroke-miterlimit="10"/>
<path d="M129.29 72.79C128.26 72.79 127.59 73.21 126.81 73.78C124.27 75.66 121.87 79.17 119.35 81.23L126.3 88.1299L126.81 87.89C129.11 84.56 137.27 80.48 133.99 75.8C133.08 74.5 130.96 72.77 129.29 72.78V72.79Z" fill="#9C5BF9"/>
<path d="M116.5 84.09L113.94 86.89L120.83 93.84L123.39 91.04L116.5 84.09Z" fill="#9C5BF9"/>
<path d="M110.84 89.8L66.5801 134.54C67.3701 134.87 68.1701 136.26 69.0401 135.64L112.58 92.0899C113.36 91.5799 111.12 89.75 110.84 89.8Z" fill="#9C5BF9"/>
<path d="M115.95 94.6699L71.72 138.87L73.23 141.19L117.86 96.8299L115.95 94.6699Z" fill="#9C5BF9"/>
<path d="M57.23 150.26L69.95 143.66C69.52 142.41 64.57 137.03 63.49 137.8L57.23 150.26Z" fill="#9C5BF9"/>
<path d="M5.89 42.37C3.71 42.86 3.4 45.99 5.63 46.85C7.1 47.42 14.02 47.46 15.29 46.62C16.86 45.58 16.3 42.78 14.45 42.37C13.45 42.15 6.88 42.15 5.88 42.37H5.89Z" fill="#49EB8B"/>
<path d="M15.6499 66.64C16.8999 65.3 16.0299 62.96 14.2299 62.67C13.0199 62.48 6.99992 62.46 5.88992 62.71C4.06992 63.12 3.45992 65.66 4.88992 66.85C6.18992 67.93 14.4599 67.91 15.6499 66.64Z" fill="#49EB8B"/>
<path d="M15.6499 86.98C16.8999 85.64 16.0299 83.3 14.2299 83.01C13.0199 82.82 6.99992 82.8 5.88992 83.05C4.06992 83.46 3.45992 86 4.88992 87.19C6.18992 88.27 14.4599 88.25 15.6499 86.98Z" fill="#49EB8B"/>
<path d="M15.6399 107.32C16.8799 105.96 16.0399 103.64 14.2199 103.35C12.9999 103.16 6.9799 103.12 5.8299 103.35C3.6999 103.76 3.4099 107.55 5.8399 107.94C7.3699 108.18 12.6599 108.16 14.2399 107.97C14.6999 107.91 15.3299 107.66 15.6299 107.33L15.6399 107.32Z" fill="#49EB8B"/>
<path d="M15.6399 127.67C16.7599 126.45 16.0599 123.99 14.4999 123.69C13.4899 123.5 6.83985 123.5 5.82985 123.69C3.67985 124.1 3.42985 127.88 5.82985 128.28C7.30985 128.52 12.6798 128.5 14.2298 128.31C14.6898 128.25 15.3198 128 15.6199 127.67H15.6399Z" fill="#49EB8B"/>
<path d="M15.6399 148.01C16.7599 146.79 16.0599 144.33 14.4999 144.03C13.3499 143.81 7.04992 143.84 5.83992 144.04C3.52992 144.42 3.52992 148.24 5.83992 148.62C7.31992 148.86 12.6899 148.84 14.2399 148.65C14.6999 148.59 15.3299 148.34 15.6299 148.01H15.6399Z" fill="#49EB8B"/>
<path d="M39.3299 2L40.0999 4.09C42.4699 10.5 47.5299 15.56 53.9399 17.93L56.0299 18.7L53.9399 19.47C47.5299 21.84 42.4699 26.9 40.0999 33.31L39.3299 35.4L38.5599 33.31C36.1899 26.9 31.1299 21.84 24.7199 19.47L22.6299 18.7L24.7199 17.93C31.1299 15.56 36.1899 10.5 38.5599 4.09L39.3299 2Z" fill="#9C5BF9" stroke="black" stroke-width="4" stroke-linecap="round" stroke-linejoin="round"/>
</g>
<defs>
<clipPath id="clip0_2_1538">
<rect width="138.86" height="168.98" fill="white"/>
</clipPath>
</defs>
</svg>
