<svg width="138" height="144" viewBox="0 0 138 144" fill="none" xmlns="http://www.w3.org/2000/svg">
<g clip-path="url(#clip0_2_1564)">
<path d="M116.17 6.37C118.63 7.06 120.65 8.46 121.73 10.85C125.09 24.85 131.01 39.18 134.02 53.16C134.55 55.6 134.39 57.03 131.95 58.16L117.5 62.32C120.26 67.29 123.13 71.1 120.13 76.85C115.17 86.36 100.37 82.37 100.37 72.62V67.4L85.4799 71.66C83.3399 71.74 82.1899 70.64 81.4399 68.79C80.3599 66.13 77.4899 56.67 77.1899 54.02C76.4799 47.81 85.3299 50.42 88.6499 48.86C94.8099 45.97 92.3299 35.9 84.9999 36.65C81.2599 37.03 75.1699 44.34 72.5099 38.1C71.5699 35.9 70.6499 31.86 69.9799 29.39C68.8599 25.31 66.3799 20.66 71.7299 18.56L113.48 6.38H116.16L116.17 6.37ZM85.1399 67.37C85.5099 67.46 85.8899 67.39 86.2599 67.33C90.4199 66.58 95.3799 64.06 99.5099 63.45C106.09 62.47 103.69 70.31 104.85 74.04C106.94 80.72 117.19 79.25 117.41 72.04C117.55 67.54 109.48 62.08 115.91 58.7L129.98 54.56L130.04 53.67C125.71 39.7 122.22 25.39 117.51 11.58C116.61 10.6 115.33 10.09 114.01 10.5L72.5699 22.45L76.2799 36.23C76.5499 36.49 76.7699 36.23 77.0199 36.14C78.7299 35.47 80.5499 33.79 82.5799 33.13C92.0899 30.02 100.05 40.96 94.2899 49.13C90.9599 53.85 86.5699 53.4 81.3799 53.75L85.1499 67.38L85.1399 67.37Z" fill="black"/>
<path d="M99.17 139.39C100.12 139.2 101.45 137.76 101.65 136.79C102.33 131.77 100.94 125.09 101.73 120.27C102.07 118.21 105.44 118.08 105.74 120.51C106.16 123.85 106.09 133.43 105.7 136.82C105.31 140.21 102.67 142.83 99.37 143.34L7.09 143.42C3.25 143.18 0.24 140.18 0 136.33L0.08 44.04C0.77 40.54 3.31 38.1 6.87 37.71C10.23 37.35 19.63 37.24 22.88 37.69C25.43 38.04 25.33 41.33 23.15 41.67C18.37 42.42 11.7 40.94 6.9 41.75C5.71 41.95 4.03 43.25 4.03 44.5V88.53H18.48C17.27 83.6 15.81 79.17 19.29 74.75C24.5 68.14 35.08 70.27 37.47 78.24C38.6 82 37.25 84.89 36.41 88.53H50.86V72.87C50.86 72.59 51.87 71.27 52.19 70.99C55.31 68.27 60.27 72.75 64.43 71.18C69.05 69.43 70.07 63.3 66.25 60.16C61.54 56.3 55.99 62.03 52.46 59.49C52.09 59.22 50.86 57.67 50.86 57.34V42.08L50.46 41.68H31.46C30.24 41.68 29 37.98 32.52 37.65C38.28 37.12 44.86 38.05 50.71 37.69C52.19 37.74 54.88 39.84 54.88 41.28V56.13C60 54.89 64.49 53.36 68.94 57.19C75.33 62.69 72.88 73.29 64.79 75.27C61.3 76.12 58.25 74.82 54.88 74.06V88.51H70.54C70.87 88.51 72.42 89.73 72.69 90.11C75.14 93.53 69.78 98.92 72.96 103.49C75.49 107.11 80.89 107.19 83.52 103.64C86.96 98.98 81.55 93.97 83.83 90.3C84.41 89.37 85.49 88.64 86.59 88.51C89.88 88.11 97.66 88.22 101.06 88.51C103.43 88.71 105.47 90.18 105.74 92.67C106.37 98.53 105.26 105.44 105.75 111.42C105.4 114.26 101.72 113.21 101.72 111.94V92.94L101.32 92.54H87.27C88.19 96.62 89.69 100.15 87.86 104.23C84.69 111.28 75.08 112.27 70.14 106.33C66.47 101.92 68.12 97.53 69.34 92.54H54.89V108.2C54.89 108.69 53.73 110.04 53.29 110.35C49.62 112.93 44.21 106.92 39.36 111.14C36.36 113.75 36.49 118.59 39.62 121.05C44.4 124.8 49.69 119.05 53.29 121.57C53.73 121.88 54.89 123.23 54.89 123.72V139.38H99.19L99.17 139.39ZM50.86 92.55H35.2C34.19 92.55 32.56 90.48 32.41 89.45C31.9 86.1 34.9 82.77 33.52 78.97C31.87 74.42 25.59 73.42 22.5 77.16C18.97 81.43 23.19 85.56 22.48 89.72C22.3 90.75 20.68 92.54 19.68 92.54H4.02V136.57C4.02 137.4 5.77 139.38 6.56 139.38H50.86V124.93C47.29 125.69 44.48 127.05 40.78 126.04C31.98 123.64 30.33 111.63 38.37 106.95C42.76 104.39 46.33 105.93 50.86 107V92.55Z" fill="black"/>
<path d="M37.9801 18.72C42.5972 18.72 46.3401 14.9771 46.3401 10.36C46.3401 5.7429 42.5972 2 37.9801 2C33.363 2 29.6201 5.7429 29.6201 10.36C29.6201 14.9771 33.363 18.72 37.9801 18.72Z" fill="#9C5BF9" stroke="black" stroke-width="4" stroke-miterlimit="10"/>
<path d="M118.79 94L119.56 96.09C121.93 102.5 126.99 107.56 133.4 109.93L135.49 110.7L133.4 111.47C126.99 113.84 121.93 118.9 119.56 125.31L118.79 127.4L118.02 125.31C115.65 118.9 110.59 113.84 104.18 111.47L102.09 110.7L104.18 109.93C110.59 107.56 115.65 102.5 118.02 96.09L118.79 94Z" fill="#49EB8B" stroke="black" stroke-width="4" stroke-linecap="round" stroke-linejoin="round"/>
<path d="M85.1401 67.37C85.5101 67.46 85.8901 67.39 86.2601 67.33C90.4201 66.58 95.3801 64.06 99.5101 63.45C106.09 62.47 103.69 70.31 104.85 74.04C106.94 80.72 117.19 79.25 117.41 72.04C117.55 67.54 109.48 62.08 115.91 58.7L129.98 54.56L130.04 53.67C125.71 39.7 122.22 25.39 117.51 11.58C116.61 10.6 115.33 10.09 114.01 10.5L72.5701 22.45L76.2801 36.23C76.5501 36.49 76.7701 36.23 77.0201 36.14C78.7301 35.47 80.5501 33.79 82.5801 33.13C92.0901 30.02 100.05 40.96 94.2901 49.13C90.9601 53.85 86.5701 53.4 81.3801 53.75L85.1501 67.38L85.1401 67.37Z" fill="#49EB8B"/>
<path d="M50.86 92.55H35.2C34.19 92.55 32.56 90.48 32.41 89.45C31.9 86.1 34.9 82.77 33.52 78.97C31.87 74.42 25.59 73.42 22.5 77.16C18.97 81.43 23.19 85.56 22.48 89.72C22.3 90.75 20.68 92.54 19.68 92.54H4.02002V136.57C4.02002 137.4 5.77002 139.38 6.56002 139.38H50.86V124.93C47.29 125.69 44.48 127.05 40.78 126.04C31.98 123.64 30.33 111.63 38.37 106.95C42.76 104.39 46.33 105.93 50.86 107V92.55Z" fill="#9C5BF9"/>
</g>
<defs>
<clipPath id="clip0_2_1564">
<rect width="137.49" height="143.41" fill="white"/>
</clipPath>
</defs>
</svg>